<?xml version="1.0" encoding="utf-8"?>
<!-- Generator: Adobe Illustrator 18.1.1, SVG Export Plug-In . SVG Version: 6.00 Build 0)  -->
<svg version="1.1" id="Ebene_1" xmlns="http://www.w3.org/2000/svg" xmlns:xlink="http://www.w3.org/1999/xlink" x="0px" y="0px"
	 viewBox="0 0 468 72" enable-background="new 0 0 468 72" xml:space="preserve">
<g>
	<g>
		<path fill="#222223" d="M32,21.2v24.2h14.4v5.5h-21V21.2H32z"/>
	</g>
	<path fill="#222223" d="M65,7v58H7V7H65 M72,0H0v72h72V0L72,0z"/>
	<g>
		<path fill="#999999" d="M123.2,30.2c-1-0.7-2.1-1-3.5-1c-1.1,0-2.1,0.2-2.9,0.6c-0.8,0.4-1.5,1-2,1.7c-0.5,0.7-0.9,1.6-1.2,2.5
			c-0.3,0.9-0.4,1.9-0.4,2.9c0,1.1,0.1,2.1,0.4,3.1c0.3,1,0.6,1.8,1.2,2.6c0.5,0.7,1.2,1.3,2,1.7c0.8,0.4,1.8,0.6,3,0.6
			c0.8,0,1.6-0.1,2.2-0.4c0.7-0.3,1.2-0.7,1.7-1.2c0.5-0.5,0.8-1.1,1.1-1.8c0.3-0.7,0.4-1.4,0.5-2.2h2.6c-0.3,2.4-1.1,4.3-2.5,5.6
			s-3.3,2-5.8,2c-1.5,0-2.8-0.3-3.9-0.8c-1.1-0.5-2-1.2-2.8-2.1c-0.7-0.9-1.3-2-1.7-3.2c-0.4-1.2-0.6-2.5-0.6-3.9
			c0-1.4,0.2-2.7,0.6-3.9c0.4-1.2,1-2.3,1.7-3.2c0.8-0.9,1.7-1.6,2.8-2.2c1.1-0.5,2.4-0.8,3.9-0.8c1,0,2,0.1,2.8,0.4
			c0.9,0.3,1.7,0.7,2.4,1.2c0.7,0.5,1.3,1.2,1.7,1.9c0.5,0.8,0.8,1.7,0.9,2.7h-2.6C124.8,31.9,124.2,30.8,123.2,30.2z"/>
		<path fill="#999999" d="M132.7,32.7v2.9h0.1c0.6-1.1,1.2-2,2-2.5c0.8-0.5,1.8-0.8,3.1-0.8v2.4c-0.9,0-1.7,0.1-2.3,0.4
			c-0.6,0.3-1.2,0.6-1.6,1.1c-0.4,0.5-0.7,1.1-0.9,1.8c-0.2,0.7-0.3,1.5-0.3,2.4v6.2h-2.3V32.7H132.7z"/>
		<path fill="#999999" d="M148.9,45.7c-1,0.8-2.3,1.2-3.9,1.2c-1.1,0-2.1-0.2-2.9-0.5c-0.8-0.4-1.5-0.9-2.1-1.5
			c-0.6-0.6-1-1.4-1.2-2.3c-0.3-0.9-0.4-1.9-0.5-2.9c0-1.1,0.2-2,0.5-2.9c0.3-0.9,0.8-1.6,1.4-2.3c0.6-0.6,1.3-1.1,2.1-1.5
			c0.8-0.4,1.7-0.5,2.6-0.5c1.2,0,2.3,0.3,3.1,0.8c0.8,0.5,1.5,1.2,2,1.9c0.5,0.8,0.8,1.6,1,2.6c0.2,0.9,0.3,1.8,0.2,2.7h-10.4
			c0,0.6,0.1,1.2,0.2,1.7c0.2,0.5,0.4,1,0.8,1.5c0.4,0.4,0.8,0.8,1.4,1c0.6,0.3,1.2,0.4,2,0.4c1,0,1.8-0.2,2.4-0.7
			c0.6-0.4,1-1.1,1.2-2h2.3C150.7,43.8,150,45,148.9,45.7z M148.4,36.8c-0.2-0.5-0.5-0.9-0.8-1.2c-0.3-0.3-0.8-0.6-1.2-0.8
			c-0.5-0.2-1-0.3-1.6-0.3c-0.6,0-1.1,0.1-1.6,0.3c-0.5,0.2-0.9,0.5-1.2,0.8c-0.3,0.4-0.6,0.8-0.8,1.2c-0.2,0.5-0.3,1-0.3,1.5h8
			C148.7,37.8,148.6,37.3,148.4,36.8z"/>
		<path fill="#999999" d="M165.8,46.6c-0.4,0.2-0.9,0.3-1.6,0.3c-0.6,0-1.1-0.2-1.4-0.5c-0.3-0.3-0.5-0.9-0.5-1.6
			c-0.6,0.8-1.4,1.3-2.2,1.6c-0.8,0.3-1.7,0.5-2.7,0.5c-0.6,0-1.2-0.1-1.8-0.2c-0.6-0.1-1.1-0.4-1.5-0.7c-0.4-0.3-0.7-0.7-1-1.2
			c-0.2-0.5-0.4-1.1-0.4-1.8c0-0.8,0.1-1.4,0.4-1.9c0.3-0.5,0.6-0.9,1.1-1.2c0.4-0.3,0.9-0.6,1.5-0.7c0.6-0.2,1.1-0.3,1.7-0.4
			c0.6-0.1,1.2-0.2,1.8-0.3c0.6-0.1,1.1-0.2,1.5-0.3c0.4-0.1,0.8-0.3,1-0.5c0.3-0.2,0.4-0.6,0.4-1c0-0.5-0.1-0.9-0.3-1.2
			c-0.2-0.3-0.4-0.5-0.7-0.7c-0.3-0.2-0.6-0.3-1-0.3c-0.4-0.1-0.7-0.1-1.1-0.1c-1,0-1.8,0.2-2.4,0.6c-0.6,0.4-1,1.1-1,2.1h-2.3
			c0-0.9,0.2-1.6,0.5-2.2c0.3-0.6,0.8-1.1,1.3-1.4c0.5-0.4,1.1-0.6,1.8-0.8c0.7-0.2,1.4-0.2,2.2-0.2c0.6,0,1.2,0,1.9,0.1
			c0.6,0.1,1.2,0.3,1.7,0.5c0.5,0.3,0.9,0.7,1.2,1.2c0.3,0.5,0.5,1.2,0.5,2v7.1c0,0.5,0,0.9,0.1,1.2c0.1,0.3,0.3,0.4,0.6,0.4
			c0.2,0,0.4,0,0.7-0.1V46.6z M162.1,39.5c-0.3,0.2-0.7,0.4-1.1,0.5c-0.5,0.1-1,0.2-1.5,0.2c-0.5,0.1-1,0.1-1.5,0.2
			c-0.5,0.1-1,0.2-1.4,0.4c-0.4,0.2-0.7,0.4-1,0.8c-0.3,0.3-0.4,0.8-0.4,1.3c0,0.4,0.1,0.7,0.2,0.9c0.2,0.3,0.3,0.5,0.6,0.6
			c0.2,0.2,0.5,0.3,0.8,0.3c0.3,0.1,0.7,0.1,1,0.1c0.8,0,1.4-0.1,1.9-0.3c0.5-0.2,1-0.5,1.3-0.8c0.3-0.3,0.6-0.7,0.8-1
			c0.2-0.4,0.2-0.7,0.2-1V39.5z"/>
		<path fill="#999999" d="M173.9,32.7v2h-2.8v8.6c0,0.3,0,0.5,0.1,0.6c0,0.2,0.1,0.3,0.3,0.4c0.1,0.1,0.3,0.1,0.5,0.2
			c0.2,0,0.5,0,0.9,0h1v2h-1.7c-0.6,0-1.1,0-1.5-0.1c-0.4-0.1-0.8-0.2-1-0.4c-0.3-0.2-0.5-0.5-0.6-0.9c-0.1-0.4-0.2-0.9-0.2-1.6
			v-8.8h-2.4v-2h2.4v-4.2h2.3v4.2H173.9z"/>
		<path fill="#999999" d="M176.5,30.2v-2.8h2.3v2.8H176.5z M178.8,32.7v13.9h-2.3V32.7H178.8z"/>
		<path fill="#999999" d="M184.5,32.7v2.2h0.1c0.9-1.7,2.5-2.5,4.5-2.5c0.9,0,1.7,0.1,2.3,0.4c0.6,0.3,1.1,0.6,1.5,1
			c0.4,0.4,0.6,1,0.8,1.6c0.2,0.6,0.2,1.3,0.2,2.1v9.1h-2.3v-9.4c0-0.9-0.3-1.5-0.8-2s-1.2-0.8-2.1-0.8c-0.7,0-1.3,0.1-1.8,0.3
			c-0.5,0.2-0.9,0.5-1.3,0.9c-0.3,0.4-0.6,0.9-0.8,1.4c-0.2,0.5-0.3,1.1-0.3,1.7v7.8h-2.3V32.7H184.5z"/>
		<path fill="#999999" d="M207.7,50.5c-1,1.1-2.7,1.7-4.9,1.7c-0.6,0-1.3-0.1-2-0.2c-0.7-0.1-1.3-0.4-1.8-0.7
			c-0.5-0.3-1-0.7-1.4-1.3s-0.6-1.2-0.6-1.9h2.3c0,0.4,0.1,0.8,0.4,1c0.2,0.3,0.5,0.5,0.9,0.7c0.3,0.2,0.7,0.3,1.1,0.4
			c0.4,0.1,0.8,0.1,1.2,0.1c0.8,0,1.4-0.1,1.9-0.4c0.5-0.3,0.9-0.6,1.3-1.1c0.3-0.5,0.6-1,0.7-1.7c0.2-0.6,0.2-1.4,0.2-2.1v-0.9
			h-0.1c-0.4,0.9-1,1.5-1.8,1.9c-0.8,0.4-1.6,0.6-2.5,0.6c-1,0-1.9-0.2-2.7-0.6c-0.8-0.4-1.4-0.9-1.9-1.5c-0.5-0.6-0.9-1.4-1.2-2.2
			c-0.3-0.8-0.4-1.7-0.4-2.7c0-0.8,0.1-1.7,0.3-2.5c0.2-0.9,0.6-1.7,1.1-2.4c0.5-0.7,1.2-1.3,2-1.7c0.8-0.5,1.8-0.7,3-0.7
			c0.9,0,1.7,0.2,2.4,0.6c0.7,0.4,1.3,1,1.7,1.7h0v-2h2.1v12.7C209.3,47.7,208.8,49.4,207.7,50.5z M204.8,44.3
			c0.5-0.3,1-0.7,1.3-1.2c0.3-0.5,0.6-1.1,0.7-1.7c0.2-0.6,0.2-1.3,0.2-1.9c0-0.6-0.1-1.2-0.2-1.8s-0.4-1.1-0.7-1.6
			c-0.3-0.5-0.7-0.9-1.2-1.1c-0.5-0.3-1.1-0.4-1.8-0.4c-0.7,0-1.4,0.1-1.9,0.4c-0.5,0.3-0.9,0.6-1.3,1.1c-0.3,0.5-0.6,1-0.7,1.6
			c-0.2,0.6-0.2,1.2-0.2,1.9c0,0.6,0.1,1.3,0.2,1.9c0.1,0.6,0.3,1.2,0.6,1.7c0.3,0.5,0.7,0.9,1.2,1.2c0.5,0.3,1.1,0.5,1.9,0.5
			C203.6,44.8,204.3,44.6,204.8,44.3z"/>
		<path fill="#999999" d="M222.2,32.7v2.9h0.1c0.6-1.1,1.2-2,2-2.5c0.8-0.5,1.8-0.8,3.1-0.8v2.4c-0.9,0-1.7,0.1-2.3,0.4
			c-0.6,0.3-1.2,0.6-1.6,1.1c-0.4,0.5-0.7,1.1-0.9,1.8c-0.2,0.7-0.3,1.5-0.3,2.4v6.2h-2.3V32.7H222.2z"/>
		<path fill="#999999" d="M238.5,45.7c-1,0.8-2.3,1.2-3.9,1.2c-1.1,0-2.1-0.2-2.9-0.5c-0.8-0.4-1.5-0.9-2.1-1.5
			c-0.6-0.6-1-1.4-1.2-2.3c-0.3-0.9-0.4-1.9-0.5-2.9c0-1.1,0.2-2,0.5-2.9c0.3-0.9,0.8-1.6,1.4-2.3c0.6-0.6,1.3-1.1,2.1-1.5
			c0.8-0.4,1.7-0.5,2.6-0.5c1.2,0,2.3,0.3,3.1,0.8c0.8,0.5,1.5,1.2,2,1.9c0.5,0.8,0.8,1.6,1,2.6c0.2,0.9,0.3,1.8,0.2,2.7h-10.4
			c0,0.6,0.1,1.2,0.2,1.7c0.2,0.5,0.4,1,0.8,1.5c0.4,0.4,0.8,0.8,1.4,1c0.6,0.3,1.2,0.4,2,0.4c1,0,1.8-0.2,2.4-0.7
			c0.6-0.4,1-1.1,1.2-2h2.3C240.2,43.8,239.5,45,238.5,45.7z M237.9,36.8c-0.2-0.5-0.5-0.9-0.8-1.2c-0.3-0.3-0.8-0.6-1.2-0.8
			c-0.5-0.2-1-0.3-1.6-0.3c-0.6,0-1.1,0.1-1.6,0.3c-0.5,0.2-0.9,0.5-1.2,0.8c-0.3,0.4-0.6,0.8-0.8,1.2c-0.2,0.5-0.3,1-0.3,1.5h8
			C238.2,37.8,238.1,37.3,237.9,36.8z"/>
		<path fill="#999999" d="M245.2,32.7v2h0.1c1-1.6,2.5-2.4,4.5-2.4c0.9,0,1.6,0.2,2.3,0.5c0.7,0.4,1.2,1,1.5,1.8
			c0.5-0.8,1.1-1.3,1.8-1.7c0.8-0.4,1.6-0.6,2.5-0.6c0.7,0,1.3,0.1,1.9,0.2c0.6,0.2,1,0.4,1.5,0.7c0.4,0.3,0.7,0.7,0.9,1.2
			c0.2,0.5,0.3,1.1,0.3,1.8v10.2h-2.3v-9.1c0-0.4,0-0.8-0.1-1.2c-0.1-0.4-0.2-0.7-0.4-1c-0.2-0.3-0.5-0.5-0.8-0.7
			c-0.3-0.2-0.8-0.2-1.4-0.2c-1.1,0-2,0.3-2.7,1c-0.6,0.6-1,1.5-1,2.6v8.6h-2.3v-9.1c0-0.4,0-0.9-0.1-1.2c-0.1-0.4-0.2-0.7-0.4-1
			c-0.2-0.3-0.5-0.5-0.8-0.6c-0.3-0.2-0.8-0.2-1.3-0.2c-0.7,0-1.2,0.1-1.7,0.4c-0.5,0.3-0.9,0.6-1.2,1c-0.3,0.4-0.5,0.8-0.6,1.2
			c-0.1,0.4-0.2,0.7-0.2,1v8.6h-2.3V32.7H245.2z"/>
		<path fill="#999999" d="M278.3,46.6c-0.4,0.2-0.9,0.3-1.6,0.3c-0.6,0-1.1-0.2-1.4-0.5c-0.3-0.3-0.5-0.9-0.5-1.6
			c-0.6,0.8-1.4,1.3-2.2,1.6c-0.8,0.3-1.7,0.5-2.7,0.5c-0.6,0-1.2-0.1-1.8-0.2c-0.6-0.1-1.1-0.4-1.5-0.7c-0.4-0.3-0.7-0.7-1-1.2
			c-0.2-0.5-0.4-1.1-0.4-1.8c0-0.8,0.1-1.4,0.4-1.9s0.6-0.9,1.1-1.2c0.4-0.3,0.9-0.6,1.5-0.7c0.6-0.2,1.1-0.3,1.7-0.4
			c0.6-0.1,1.2-0.2,1.8-0.3c0.6-0.1,1.1-0.2,1.5-0.3c0.4-0.1,0.8-0.3,1-0.5c0.3-0.2,0.4-0.6,0.4-1c0-0.5-0.1-0.9-0.3-1.2
			c-0.2-0.3-0.4-0.5-0.7-0.7c-0.3-0.2-0.6-0.3-1-0.3c-0.4-0.1-0.7-0.1-1.1-0.1c-1,0-1.8,0.2-2.4,0.6c-0.6,0.4-1,1.1-1,2.1h-2.3
			c0-0.9,0.2-1.6,0.5-2.2c0.3-0.6,0.8-1.1,1.3-1.4c0.5-0.4,1.1-0.6,1.8-0.8c0.7-0.2,1.4-0.2,2.2-0.2c0.6,0,1.2,0,1.9,0.1
			c0.6,0.1,1.2,0.3,1.7,0.5c0.5,0.3,0.9,0.7,1.2,1.2c0.3,0.5,0.5,1.2,0.5,2v7.1c0,0.5,0,0.9,0.1,1.2c0.1,0.3,0.3,0.4,0.6,0.4
			c0.2,0,0.4,0,0.7-0.1V46.6z M274.6,39.5c-0.3,0.2-0.7,0.4-1.1,0.5c-0.5,0.1-1,0.2-1.5,0.2s-1,0.1-1.5,0.2c-0.5,0.1-1,0.2-1.4,0.4
			c-0.4,0.2-0.7,0.4-1,0.8c-0.3,0.3-0.4,0.8-0.4,1.3c0,0.4,0.1,0.7,0.2,0.9c0.2,0.3,0.3,0.5,0.6,0.6c0.2,0.2,0.5,0.3,0.8,0.3
			c0.3,0.1,0.7,0.1,1,0.1c0.8,0,1.4-0.1,1.9-0.3c0.5-0.2,1-0.5,1.3-0.8c0.3-0.3,0.6-0.7,0.8-1c0.2-0.4,0.2-0.7,0.2-1V39.5z"/>
		<path fill="#999999" d="M282.4,32.7v2.9h0.1c0.6-1.1,1.2-2,2-2.5c0.8-0.5,1.8-0.8,3.1-0.8v2.4c-0.9,0-1.7,0.1-2.3,0.4
			c-0.6,0.3-1.2,0.6-1.6,1.1c-0.4,0.5-0.7,1.1-0.9,1.8c-0.2,0.7-0.3,1.5-0.3,2.4v6.2h-2.3V32.7H282.4z"/>
		<path fill="#999999" d="M291.7,27.5v11.4l6.3-6.1h3.1l-5.5,5l5.9,8.8h-2.9l-4.8-7.2l-2.1,2v5.3h-2.3V27.5H291.7z"/>
		<path fill="#999999" d="M315.6,46.6c-0.4,0.2-0.9,0.3-1.6,0.3c-0.6,0-1.1-0.2-1.4-0.5c-0.3-0.3-0.5-0.9-0.5-1.6
			c-0.6,0.8-1.4,1.3-2.2,1.6c-0.8,0.3-1.7,0.5-2.7,0.5c-0.6,0-1.2-0.1-1.8-0.2c-0.6-0.1-1.1-0.4-1.5-0.7c-0.4-0.3-0.7-0.7-1-1.2
			c-0.2-0.5-0.4-1.1-0.4-1.8c0-0.8,0.1-1.4,0.4-1.9s0.6-0.9,1.1-1.2c0.4-0.3,0.9-0.6,1.5-0.7c0.6-0.2,1.1-0.3,1.7-0.4
			c0.6-0.1,1.2-0.2,1.8-0.3c0.6-0.1,1.1-0.2,1.5-0.3c0.4-0.1,0.8-0.3,1-0.5c0.3-0.2,0.4-0.6,0.4-1c0-0.5-0.1-0.9-0.3-1.2
			c-0.2-0.3-0.4-0.5-0.7-0.7c-0.3-0.2-0.6-0.3-1-0.3c-0.4-0.1-0.7-0.1-1.1-0.1c-1,0-1.8,0.2-2.4,0.6c-0.6,0.4-1,1.1-1,2.1H303
			c0-0.9,0.2-1.6,0.5-2.2c0.3-0.6,0.8-1.1,1.3-1.4c0.5-0.4,1.1-0.6,1.8-0.8c0.7-0.2,1.4-0.2,2.2-0.2c0.6,0,1.2,0,1.9,0.1
			c0.6,0.1,1.2,0.3,1.7,0.5c0.5,0.3,0.9,0.7,1.2,1.2c0.3,0.5,0.5,1.2,0.5,2v7.1c0,0.5,0,0.9,0.1,1.2c0.1,0.3,0.3,0.4,0.6,0.4
			c0.2,0,0.4,0,0.7-0.1V46.6z M311.8,39.5c-0.3,0.2-0.7,0.4-1.1,0.5c-0.5,0.1-1,0.2-1.5,0.2s-1,0.1-1.5,0.2c-0.5,0.1-1,0.2-1.4,0.4
			c-0.4,0.2-0.7,0.4-1,0.8c-0.3,0.3-0.4,0.8-0.4,1.3c0,0.4,0.1,0.7,0.2,0.9c0.2,0.3,0.3,0.5,0.6,0.6c0.2,0.2,0.5,0.3,0.8,0.3
			c0.3,0.1,0.7,0.1,1,0.1c0.8,0,1.4-0.1,1.9-0.3c0.5-0.2,1-0.5,1.3-0.8c0.3-0.3,0.6-0.7,0.8-1c0.2-0.4,0.2-0.7,0.2-1V39.5z"/>
		<path fill="#999999" d="M320,27.5v7.2h0.1c0.4-0.8,1-1.3,1.8-1.7c0.8-0.3,1.7-0.5,2.7-0.5c1.1,0,2,0.2,2.8,0.6
			c0.8,0.4,1.5,0.9,2,1.6c0.5,0.7,0.9,1.4,1.2,2.3c0.3,0.9,0.4,1.8,0.4,2.8c0,1-0.1,1.9-0.4,2.8c-0.3,0.9-0.7,1.6-1.2,2.3
			c-0.5,0.7-1.2,1.2-2,1.5c-0.8,0.4-1.7,0.6-2.8,0.6c-0.3,0-0.7,0-1.1-0.1c-0.4-0.1-0.8-0.2-1.2-0.3c-0.4-0.2-0.8-0.4-1.2-0.7
			c-0.4-0.3-0.7-0.6-0.9-1H320v1.9h-2.3V27.5H320z M328.2,37.7c-0.2-0.6-0.4-1.2-0.8-1.7c-0.3-0.5-0.8-0.9-1.3-1.2
			c-0.5-0.3-1.2-0.4-1.9-0.4c-0.8,0-1.4,0.2-2,0.5c-0.5,0.3-1,0.7-1.3,1.2c-0.3,0.5-0.6,1.1-0.7,1.7c-0.2,0.6-0.2,1.3-0.2,1.9
			c0,0.7,0.1,1.3,0.2,2c0.2,0.6,0.4,1.2,0.8,1.7c0.3,0.5,0.8,0.9,1.4,1.2c0.6,0.3,1.2,0.4,2,0.4c0.8,0,1.4-0.2,2-0.5
			c0.5-0.3,1-0.7,1.3-1.2c0.3-0.5,0.6-1.1,0.7-1.7c0.1-0.6,0.2-1.3,0.2-2C328.5,38.9,328.4,38.3,328.2,37.7z"/>
		<path fill="#999999" d="M336,27.5v19.2h-2.3V27.5H336z"/>
		<path fill="#999999" d="M349.4,45.7c-1,0.8-2.3,1.2-3.9,1.2c-1.1,0-2.1-0.2-2.9-0.5c-0.8-0.4-1.5-0.9-2.1-1.5
			c-0.6-0.6-1-1.4-1.2-2.3c-0.3-0.9-0.4-1.9-0.5-2.9c0-1.1,0.2-2,0.5-2.9c0.3-0.9,0.8-1.6,1.4-2.3c0.6-0.6,1.3-1.1,2.1-1.5
			c0.8-0.4,1.7-0.5,2.6-0.5c1.2,0,2.3,0.3,3.1,0.8c0.8,0.5,1.5,1.2,2,1.9c0.5,0.8,0.8,1.6,1,2.6c0.2,0.9,0.3,1.8,0.2,2.7h-10.4
			c0,0.6,0.1,1.2,0.2,1.7c0.2,0.5,0.4,1,0.8,1.5c0.4,0.4,0.8,0.8,1.4,1c0.6,0.3,1.2,0.4,2,0.4c1,0,1.8-0.2,2.4-0.7
			c0.6-0.4,1-1.1,1.2-2h2.3C351.1,43.8,350.4,45,349.4,45.7z M348.8,36.8c-0.2-0.5-0.5-0.9-0.8-1.2c-0.3-0.3-0.8-0.6-1.2-0.8
			c-0.5-0.2-1-0.3-1.6-0.3c-0.6,0-1.1,0.1-1.6,0.3c-0.5,0.2-0.9,0.5-1.2,0.8c-0.3,0.4-0.6,0.8-0.8,1.2c-0.2,0.5-0.3,1-0.3,1.5h8
			C349.2,37.8,349,37.3,348.8,36.8z"/>
		<path fill="#999999" d="M361.6,30.2v-2.8h2.3v2.8H361.6z M363.9,32.7v13.9h-2.3V32.7H363.9z"/>
		<path fill="#999999" d="M377.5,46.6v-1.9h-0.1c-0.4,0.8-1,1.3-1.8,1.7c-0.8,0.3-1.7,0.5-2.7,0.5c-1.1,0-2-0.2-2.8-0.6
			c-0.8-0.4-1.5-0.9-2-1.6s-0.9-1.4-1.2-2.3c-0.3-0.9-0.4-1.8-0.4-2.8s0.1-1.9,0.4-2.8c0.3-0.9,0.7-1.6,1.2-2.3s1.2-1.2,2-1.6
			c0.8-0.4,1.7-0.6,2.8-0.6c0.4,0,0.7,0,1.2,0.1c0.4,0.1,0.8,0.2,1.2,0.4c0.4,0.2,0.8,0.4,1.2,0.7c0.4,0.3,0.7,0.6,0.9,1h0.1v-7.1
			h2.3v19.2H377.5z M369.3,41.7c0.2,0.6,0.4,1.2,0.8,1.7c0.3,0.5,0.8,0.9,1.3,1.2c0.5,0.3,1.2,0.4,1.9,0.4c0.8,0,1.4-0.2,2-0.5
			c0.5-0.3,1-0.7,1.3-1.2c0.3-0.5,0.6-1.1,0.7-1.7c0.2-0.6,0.2-1.3,0.2-1.9c0-0.7-0.1-1.3-0.2-2c-0.2-0.6-0.4-1.2-0.8-1.7
			c-0.3-0.5-0.8-0.9-1.4-1.2c-0.6-0.3-1.2-0.4-2-0.4c-0.8,0-1.4,0.2-2,0.5c-0.5,0.3-1,0.7-1.3,1.2c-0.3,0.5-0.6,1.1-0.7,1.7
			c-0.1,0.6-0.2,1.3-0.2,2C369.1,40.5,369.2,41.1,369.3,41.7z"/>
		<path fill="#999999" d="M393.2,45.7c-1,0.8-2.3,1.2-3.9,1.2c-1.1,0-2.1-0.2-2.9-0.5c-0.8-0.4-1.5-0.9-2.1-1.5
			c-0.6-0.6-1-1.4-1.2-2.3c-0.3-0.9-0.4-1.9-0.5-2.9c0-1.1,0.2-2,0.5-2.9c0.3-0.9,0.8-1.6,1.4-2.3c0.6-0.6,1.3-1.1,2.1-1.5
			c0.8-0.4,1.7-0.5,2.6-0.5c1.2,0,2.3,0.3,3.1,0.8c0.8,0.5,1.5,1.2,2,1.9c0.5,0.8,0.8,1.6,1,2.6c0.2,0.9,0.3,1.8,0.2,2.7H385
			c0,0.6,0.1,1.2,0.2,1.7c0.2,0.5,0.4,1,0.8,1.5c0.4,0.4,0.8,0.8,1.4,1c0.6,0.3,1.2,0.4,2,0.4c1,0,1.8-0.2,2.4-0.7
			c0.6-0.4,1-1.1,1.2-2h2.3C394.9,43.8,394.2,45,393.2,45.7z M392.6,36.8c-0.2-0.5-0.5-0.9-0.8-1.2c-0.3-0.3-0.8-0.6-1.2-0.8
			c-0.5-0.2-1-0.3-1.6-0.3c-0.6,0-1.1,0.1-1.6,0.3c-0.5,0.2-0.9,0.5-1.2,0.8c-0.3,0.4-0.6,0.8-0.8,1.2c-0.2,0.5-0.3,1-0.3,1.5h8
			C392.9,37.8,392.8,37.3,392.6,36.8z"/>
		<path fill="#999999" d="M399.9,32.7v2.2h0.1c0.9-1.7,2.5-2.5,4.5-2.5c0.9,0,1.7,0.1,2.3,0.4c0.6,0.3,1.1,0.6,1.5,1
			c0.4,0.4,0.6,1,0.8,1.6c0.2,0.6,0.2,1.3,0.2,2.1v9.1H407v-9.4c0-0.9-0.3-1.5-0.8-2c-0.5-0.5-1.2-0.8-2.1-0.8
			c-0.7,0-1.3,0.1-1.8,0.3c-0.5,0.2-0.9,0.5-1.3,0.9c-0.3,0.4-0.6,0.9-0.8,1.4c-0.2,0.5-0.3,1.1-0.3,1.7v7.8h-2.3V32.7H399.9z"/>
		<path fill="#999999" d="M418.6,32.7v2h-2.8v8.6c0,0.3,0,0.5,0.1,0.6c0,0.2,0.1,0.3,0.3,0.4c0.1,0.1,0.3,0.1,0.5,0.2
			c0.2,0,0.5,0,0.9,0h1v2h-1.7c-0.6,0-1.1,0-1.5-0.1c-0.4-0.1-0.8-0.2-1-0.4c-0.3-0.2-0.5-0.5-0.6-0.9c-0.1-0.4-0.2-0.9-0.2-1.6
			v-8.8h-2.4v-2h2.4v-4.2h2.3v4.2H418.6z"/>
		<path fill="#999999" d="M421.3,30.2v-2.8h2.3v2.8H421.3z M423.5,32.7v13.9h-2.3V32.7H423.5z"/>
		<path fill="#999999" d="M433,32.7v2h-2.8v8.6c0,0.3,0,0.5,0.1,0.6c0,0.2,0.1,0.3,0.3,0.4c0.1,0.1,0.3,0.1,0.5,0.2
			c0.2,0,0.5,0,0.9,0h1v2h-1.7c-0.6,0-1.1,0-1.5-0.1c-0.4-0.1-0.8-0.2-1-0.4c-0.3-0.2-0.5-0.5-0.6-0.9c-0.1-0.4-0.2-0.9-0.2-1.6
			v-8.8h-2.4v-2h2.4v-4.2h2.3v4.2H433z"/>
		<path fill="#999999" d="M435.7,30.2v-2.8h2.3v2.8H435.7z M438,32.7v13.9h-2.3V32.7H438z"/>
		<path fill="#999999" d="M451.3,45.7c-1,0.8-2.3,1.2-3.9,1.2c-1.1,0-2.1-0.2-2.9-0.5c-0.8-0.4-1.5-0.9-2.1-1.5
			c-0.6-0.6-1-1.4-1.2-2.3c-0.3-0.9-0.4-1.9-0.5-2.9c0-1.1,0.2-2,0.5-2.9c0.3-0.9,0.8-1.6,1.4-2.3c0.6-0.6,1.3-1.1,2.1-1.5
			c0.8-0.4,1.7-0.5,2.6-0.5c1.2,0,2.3,0.3,3.1,0.8c0.8,0.5,1.5,1.2,2,1.9c0.5,0.8,0.8,1.6,1,2.6c0.2,0.9,0.3,1.8,0.2,2.7h-10.4
			c0,0.6,0.1,1.2,0.2,1.7c0.2,0.5,0.4,1,0.8,1.5c0.4,0.4,0.8,0.8,1.4,1c0.6,0.3,1.2,0.4,2,0.4c1,0,1.8-0.2,2.4-0.7
			c0.6-0.4,1-1.1,1.2-2h2.3C453,43.8,452.4,45,451.3,45.7z M450.8,36.8c-0.2-0.5-0.5-0.9-0.8-1.2c-0.3-0.3-0.8-0.6-1.2-0.8
			c-0.5-0.2-1-0.3-1.6-0.3c-0.6,0-1.1,0.1-1.6,0.3c-0.5,0.2-0.9,0.5-1.2,0.8c-0.3,0.4-0.6,0.8-0.8,1.2c-0.2,0.5-0.3,1-0.3,1.5h8
			C451.1,37.8,451,37.3,450.8,36.8z"/>
		<path fill="#999999" d="M457.7,43.5c0.2,0.3,0.5,0.6,0.8,0.8c0.3,0.2,0.7,0.4,1.2,0.4c0.4,0.1,0.9,0.1,1.4,0.1
			c0.4,0,0.7,0,1.1-0.1c0.4-0.1,0.8-0.2,1.1-0.3c0.3-0.1,0.6-0.4,0.8-0.6c0.2-0.3,0.3-0.6,0.3-1.1c0-0.6-0.2-1-0.7-1.3
			c-0.4-0.3-1-0.6-1.7-0.7c-0.7-0.2-1.4-0.4-2.2-0.5c-0.8-0.2-1.5-0.4-2.2-0.6c-0.7-0.3-1.2-0.7-1.7-1.2c-0.4-0.5-0.7-1.2-0.7-2.1
			c0-0.7,0.2-1.3,0.5-1.8c0.3-0.5,0.7-0.9,1.2-1.2c0.5-0.3,1-0.5,1.7-0.7c0.6-0.2,1.2-0.2,1.8-0.2c0.8,0,1.5,0.1,2.2,0.2
			c0.7,0.1,1.2,0.4,1.8,0.7c0.5,0.3,0.9,0.8,1.2,1.3c0.3,0.6,0.5,1.3,0.5,2.1h-2.3c0-0.4-0.2-0.8-0.3-1.1c-0.2-0.3-0.4-0.5-0.8-0.7
			c-0.3-0.2-0.6-0.3-1-0.4c-0.4-0.1-0.7-0.1-1.1-0.1c-0.3,0-0.7,0-1,0.1c-0.3,0.1-0.7,0.1-1,0.3c-0.3,0.1-0.5,0.3-0.7,0.5
			c-0.2,0.2-0.3,0.5-0.3,0.9c0,0.4,0.1,0.7,0.4,1c0.3,0.3,0.6,0.5,1.1,0.6c0.4,0.2,0.9,0.3,1.5,0.4c0.5,0.1,1.1,0.2,1.6,0.4
			c0.6,0.1,1.1,0.3,1.7,0.5c0.5,0.2,1,0.4,1.5,0.7c0.4,0.3,0.8,0.7,1,1.1c0.3,0.4,0.4,1,0.4,1.7c0,0.8-0.2,1.5-0.5,2.1
			c-0.3,0.6-0.8,1-1.4,1.3c-0.6,0.3-1.2,0.6-1.9,0.7c-0.7,0.1-1.4,0.2-2.1,0.2c-0.8,0-1.5-0.1-2.2-0.2c-0.7-0.2-1.3-0.4-1.9-0.8
			s-1-0.8-1.3-1.5c-0.3-0.6-0.5-1.3-0.5-2.2h2.3C457.3,42.8,457.5,43.2,457.7,43.5z"/>
	</g>
</g>
</svg>
