<?xml version="1.0" encoding="UTF-8" standalone="no"?><!DOCTYPE svg PUBLIC "-//W3C//DTD SVG 1.1//EN" "http://www.w3.org/Graphics/SVG/1.1/DTD/svg11.dtd"><svg width="100%" height="100%" viewBox="0 0 468 72" version="1.1" xmlns="http://www.w3.org/2000/svg" xmlns:xlink="http://www.w3.org/1999/xlink" xml:space="preserve" style="fill-rule:evenodd;clip-rule:evenodd;stroke-linejoin:round;stroke-miterlimit:1.41421;"><g><path d="M32,21.2l0,24.2l14.4,0l0,5.5l-21,0l0,-29.7l6.6,0Z" style="fill:#b1bec2;fill-rule:nonzero;"/><path d="M65,7l0,58l-58,0l0,-58l58,0M72,0l-72,0l0,72l72,0l0,-72Z" style="fill:#b1bec2;fill-rule:nonzero;"/><g><path d="M123.2,30.2c-1,-0.7 -2.1,-1 -3.5,-1c-1.1,0 -2.1,0.2 -2.9,0.6c-0.8,0.4 -1.5,1 -2,1.7c-0.5,0.7 -0.9,1.6 -1.2,2.5c-0.3,0.9 -0.4,1.9 -0.4,2.9c0,1.1 0.1,2.1 0.4,3.1c0.3,1 0.6,1.8 1.2,2.6c0.5,0.7 1.2,1.3 2,1.7c0.8,0.4 1.8,0.6 3,0.6c0.8,0 1.6,-0.1 2.2,-0.4c0.7,-0.3 1.2,-0.7 1.7,-1.2c0.5,-0.5 0.8,-1.1 1.1,-1.8c0.3,-0.7 0.4,-1.4 0.5,-2.2l2.6,0c-0.3,2.4 -1.1,4.3 -2.5,5.6c-1.4,1.3 -3.3,2 -5.8,2c-1.5,0 -2.8,-0.3 -3.9,-0.8c-1.1,-0.5 -2,-1.2 -2.8,-2.1c-0.7,-0.9 -1.3,-2 -1.7,-3.2c-0.4,-1.2 -0.6,-2.5 -0.6,-3.9c0,-1.4 0.2,-2.7 0.6,-3.9c0.4,-1.2 1,-2.3 1.7,-3.2c0.8,-0.9 1.7,-1.6 2.8,-2.2c1.1,-0.5 2.4,-0.8 3.9,-0.8c1,0 2,0.1 2.8,0.4c0.9,0.3 1.7,0.7 2.4,1.2c0.7,0.5 1.3,1.2 1.7,1.9c0.5,0.8 0.8,1.7 0.9,2.7l-2.6,0c0,-1.1 -0.6,-2.2 -1.6,-2.8Z" style="fill:#676d70;fill-rule:nonzero;"/><path d="M132.7,32.7l0,2.9l0.1,0c0.6,-1.1 1.2,-2 2,-2.5c0.8,-0.5 1.8,-0.8 3.1,-0.8l0,2.4c-0.9,0 -1.7,0.1 -2.3,0.4c-0.6,0.3 -1.2,0.6 -1.6,1.1c-0.4,0.5 -0.7,1.1 -0.9,1.8c-0.2,0.7 -0.3,1.5 -0.3,2.4l0,6.2l-2.3,0l0,-13.9l2.2,0Z" style="fill:#676d70;fill-rule:nonzero;"/><path d="M148.9,45.7c-1,0.8 -2.3,1.2 -3.9,1.2c-1.1,0 -2.1,-0.2 -2.9,-0.5c-0.8,-0.4 -1.5,-0.9 -2.1,-1.5c-0.6,-0.6 -1,-1.4 -1.2,-2.3c-0.3,-0.9 -0.4,-1.9 -0.5,-2.9c0,-1.1 0.2,-2 0.5,-2.9c0.3,-0.9 0.8,-1.6 1.4,-2.3c0.6,-0.6 1.3,-1.1 2.1,-1.5c0.8,-0.4 1.7,-0.5 2.6,-0.5c1.2,0 2.3,0.3 3.1,0.8c0.8,0.5 1.5,1.2 2,1.9c0.5,0.8 0.8,1.6 1,2.6c0.2,0.9 0.3,1.8 0.2,2.7l-10.4,0c0,0.6 0.1,1.2 0.2,1.7c0.2,0.5 0.4,1 0.8,1.5c0.4,0.4 0.8,0.8 1.4,1c0.6,0.3 1.2,0.4 2,0.4c1,0 1.8,-0.2 2.4,-0.7c0.6,-0.4 1,-1.1 1.2,-2l2.3,0c-0.4,1.4 -1.1,2.6 -2.2,3.3ZM148.4,36.8c-0.2,-0.5 -0.5,-0.9 -0.8,-1.2c-0.3,-0.3 -0.8,-0.6 -1.2,-0.8c-0.5,-0.2 -1,-0.3 -1.6,-0.3c-0.6,0 -1.1,0.1 -1.6,0.3c-0.5,0.2 -0.9,0.5 -1.2,0.8c-0.3,0.4 -0.6,0.8 -0.8,1.2c-0.2,0.5 -0.3,1 -0.3,1.5l8,0c-0.2,-0.5 -0.3,-1 -0.5,-1.5Z" style="fill:#676d70;fill-rule:nonzero;"/><path d="M165.8,46.6c-0.4,0.2 -0.9,0.3 -1.6,0.3c-0.6,0 -1.1,-0.2 -1.4,-0.5c-0.3,-0.3 -0.5,-0.9 -0.5,-1.6c-0.6,0.8 -1.4,1.3 -2.2,1.6c-0.8,0.3 -1.7,0.5 -2.7,0.5c-0.6,0 -1.2,-0.1 -1.8,-0.2c-0.6,-0.1 -1.1,-0.4 -1.5,-0.7c-0.4,-0.3 -0.7,-0.7 -1,-1.2c-0.2,-0.5 -0.4,-1.1 -0.4,-1.8c0,-0.8 0.1,-1.4 0.4,-1.9c0.3,-0.5 0.6,-0.9 1.1,-1.2c0.4,-0.3 0.9,-0.6 1.5,-0.7c0.6,-0.2 1.1,-0.3 1.7,-0.4c0.6,-0.1 1.2,-0.2 1.8,-0.3c0.6,-0.1 1.1,-0.2 1.5,-0.3c0.4,-0.1 0.8,-0.3 1,-0.5c0.3,-0.2 0.4,-0.6 0.4,-1c0,-0.5 -0.1,-0.9 -0.3,-1.2c-0.2,-0.3 -0.4,-0.5 -0.7,-0.7c-0.3,-0.2 -0.6,-0.3 -1,-0.3c-0.4,-0.1 -0.7,-0.1 -1.1,-0.1c-1,0 -1.8,0.2 -2.4,0.6c-0.6,0.4 -1,1.1 -1,2.1l-2.3,0c0,-0.9 0.2,-1.6 0.5,-2.2c0.3,-0.6 0.8,-1.1 1.3,-1.4c0.5,-0.4 1.1,-0.6 1.8,-0.8c0.7,-0.2 1.4,-0.2 2.2,-0.2c0.6,0 1.2,0 1.9,0.1c0.6,0.1 1.2,0.3 1.7,0.5c0.5,0.3 0.9,0.7 1.2,1.2c0.3,0.5 0.5,1.2 0.5,2l0,7.1c0,0.5 0,0.9 0.1,1.2c0.1,0.3 0.3,0.4 0.6,0.4c0.2,0 0.4,0 0.7,-0.1l0,1.7ZM162.1,39.5c-0.3,0.2 -0.7,0.4 -1.1,0.5c-0.5,0.1 -1,0.2 -1.5,0.2c-0.5,0.1 -1,0.1 -1.5,0.2c-0.5,0.1 -1,0.2 -1.4,0.4c-0.4,0.2 -0.7,0.4 -1,0.8c-0.3,0.3 -0.4,0.8 -0.4,1.3c0,0.4 0.1,0.7 0.2,0.9c0.2,0.3 0.3,0.5 0.6,0.6c0.2,0.2 0.5,0.3 0.8,0.3c0.3,0.1 0.7,0.1 1,0.1c0.8,0 1.4,-0.1 1.9,-0.3c0.5,-0.2 1,-0.5 1.3,-0.8c0.3,-0.3 0.6,-0.7 0.8,-1c0.2,-0.4 0.2,-0.7 0.2,-1l0,-2.2l0.1,0Z" style="fill:#676d70;fill-rule:nonzero;"/><path d="M173.9,32.7l0,2l-2.8,0l0,8.6c0,0.3 0,0.5 0.1,0.6c0,0.2 0.1,0.3 0.3,0.4c0.1,0.1 0.3,0.1 0.5,0.2l1.9,0l0,2l-1.7,0c-0.6,0 -1.1,0 -1.5,-0.1c-0.4,-0.1 -0.8,-0.2 -1,-0.4c-0.3,-0.2 -0.5,-0.5 -0.6,-0.9c-0.1,-0.4 -0.2,-0.9 -0.2,-1.6l0,-8.8l-2.4,0l0,-2l2.4,0l0,-4.2l2.3,0l0,4.2l2.7,0Z" style="fill:#676d70;fill-rule:nonzero;"/><path d="M176.5,30.2l0,-2.8l2.3,0l0,2.8l-2.3,0ZM178.8,32.7l0,13.9l-2.3,0l0,-13.9l2.3,0Z" style="fill:#676d70;fill-rule:nonzero;"/><path d="M184.5,32.7l0,2.2l0.1,0c0.9,-1.7 2.5,-2.5 4.5,-2.5c0.9,0 1.7,0.1 2.3,0.4c0.6,0.3 1.1,0.6 1.5,1c0.4,0.4 0.6,1 0.8,1.6c0.2,0.6 0.2,1.3 0.2,2.1l0,9.1l-2.3,0l0,-9.4c0,-0.9 -0.3,-1.5 -0.8,-2c-0.5,-0.5 -1.2,-0.8 -2.1,-0.8c-0.7,0 -1.3,0.1 -1.8,0.3c-0.5,0.2 -0.9,0.5 -1.3,0.9c-0.3,0.4 -0.6,0.9 -0.8,1.4c-0.2,0.5 -0.3,1.1 -0.3,1.7l0,7.8l-2.3,0l0,-13.8l2.3,0Z" style="fill:#676d70;fill-rule:nonzero;"/><path d="M207.7,50.5c-1,1.1 -2.7,1.7 -4.9,1.7c-0.6,0 -1.3,-0.1 -2,-0.2c-0.7,-0.1 -1.3,-0.4 -1.8,-0.7c-0.5,-0.3 -1,-0.7 -1.4,-1.3c-0.4,-0.6 -0.6,-1.2 -0.6,-1.9l2.3,0c0,0.4 0.1,0.8 0.4,1c0.2,0.3 0.5,0.5 0.9,0.7c0.3,0.2 0.7,0.3 1.1,0.4c0.4,0.1 0.8,0.1 1.2,0.1c0.8,0 1.4,-0.1 1.9,-0.4c0.5,-0.3 0.9,-0.6 1.3,-1.1c0.3,-0.5 0.6,-1 0.7,-1.7c0.2,-0.6 0.2,-1.4 0.2,-2.1l0,-0.9l-0.1,0c-0.4,0.9 -1,1.5 -1.8,1.9c-0.8,0.4 -1.6,0.6 -2.5,0.6c-1,0 -1.9,-0.2 -2.7,-0.6c-0.8,-0.4 -1.4,-0.9 -1.9,-1.5c-0.5,-0.6 -0.9,-1.4 -1.2,-2.2c-0.3,-0.8 -0.4,-1.7 -0.4,-2.7c0,-0.8 0.1,-1.7 0.3,-2.5c0.2,-0.9 0.6,-1.7 1.1,-2.4c0.5,-0.7 1.2,-1.3 2,-1.7c0.8,-0.5 1.8,-0.7 3,-0.7c0.9,0 1.7,0.2 2.4,0.6c0.7,0.4 1.3,1 1.7,1.7l0,-2l2.1,0l0,12.7c0.3,2.4 -0.2,4.1 -1.3,5.2ZM204.8,44.3c0.5,-0.3 1,-0.7 1.3,-1.2c0.3,-0.5 0.6,-1.1 0.7,-1.7c0.2,-0.6 0.2,-1.3 0.2,-1.9c0,-0.6 -0.1,-1.2 -0.2,-1.8c-0.1,-0.6 -0.4,-1.1 -0.7,-1.6c-0.3,-0.5 -0.7,-0.9 -1.2,-1.1c-0.5,-0.3 -1.1,-0.4 -1.8,-0.4c-0.7,0 -1.4,0.1 -1.9,0.4c-0.5,0.3 -0.9,0.6 -1.3,1.1c-0.3,0.5 -0.6,1 -0.7,1.6c-0.2,0.6 -0.2,1.2 -0.2,1.9c0,0.6 0.1,1.3 0.2,1.9c0.1,0.6 0.3,1.2 0.6,1.7c0.3,0.5 0.7,0.9 1.2,1.2c0.5,0.3 1.1,0.5 1.9,0.5c0.7,-0.1 1.4,-0.3 1.9,-0.6Z" style="fill:#676d70;fill-rule:nonzero;"/><path d="M222.2,32.7l0,2.9l0.1,0c0.6,-1.1 1.2,-2 2,-2.5c0.8,-0.5 1.8,-0.8 3.1,-0.8l0,2.4c-0.9,0 -1.7,0.1 -2.3,0.4c-0.6,0.3 -1.2,0.6 -1.6,1.1c-0.4,0.5 -0.7,1.1 -0.9,1.8c-0.2,0.7 -0.3,1.5 -0.3,2.4l0,6.2l-2.3,0l0,-13.9l2.2,0Z" style="fill:#676d70;fill-rule:nonzero;"/><path d="M238.5,45.7c-1,0.8 -2.3,1.2 -3.9,1.2c-1.1,0 -2.1,-0.2 -2.9,-0.5c-0.8,-0.4 -1.5,-0.9 -2.1,-1.5c-0.6,-0.6 -1,-1.4 -1.2,-2.3c-0.3,-0.9 -0.4,-1.9 -0.5,-2.9c0,-1.1 0.2,-2 0.5,-2.9c0.3,-0.9 0.8,-1.6 1.4,-2.3c0.6,-0.6 1.3,-1.1 2.1,-1.5c0.8,-0.4 1.7,-0.5 2.6,-0.5c1.2,0 2.3,0.3 3.1,0.8c0.8,0.5 1.5,1.2 2,1.9c0.5,0.8 0.8,1.6 1,2.6c0.2,0.9 0.3,1.8 0.2,2.7l-10.4,0c0,0.6 0.1,1.2 0.2,1.7c0.2,0.5 0.4,1 0.8,1.5c0.4,0.4 0.8,0.8 1.4,1c0.6,0.3 1.2,0.4 2,0.4c1,0 1.8,-0.2 2.4,-0.7c0.6,-0.4 1,-1.1 1.2,-2l2.3,0c-0.5,1.4 -1.2,2.6 -2.2,3.3ZM237.9,36.8c-0.2,-0.5 -0.5,-0.9 -0.8,-1.2c-0.3,-0.3 -0.8,-0.6 -1.2,-0.8c-0.5,-0.2 -1,-0.3 -1.6,-0.3c-0.6,0 -1.1,0.1 -1.6,0.3c-0.5,0.2 -0.9,0.5 -1.2,0.8c-0.3,0.4 -0.6,0.8 -0.8,1.2c-0.2,0.5 -0.3,1 -0.3,1.5l8,0c-0.2,-0.5 -0.3,-1 -0.5,-1.5Z" style="fill:#676d70;fill-rule:nonzero;"/><path d="M245.2,32.7l0,2l0.1,0c1,-1.6 2.5,-2.4 4.5,-2.4c0.9,0 1.6,0.2 2.3,0.5c0.7,0.4 1.2,1 1.5,1.8c0.5,-0.8 1.1,-1.3 1.8,-1.7c0.8,-0.4 1.6,-0.6 2.5,-0.6c0.7,0 1.3,0.1 1.9,0.2c0.6,0.2 1,0.4 1.5,0.7c0.4,0.3 0.7,0.7 0.9,1.2c0.2,0.5 0.3,1.1 0.3,1.8l0,10.2l-2.3,0l0,-9.1c0,-0.4 0,-0.8 -0.1,-1.2c-0.1,-0.4 -0.2,-0.7 -0.4,-1c-0.2,-0.3 -0.5,-0.5 -0.8,-0.7c-0.3,-0.2 -0.8,-0.2 -1.4,-0.2c-1.1,0 -2,0.3 -2.7,1c-0.6,0.6 -1,1.5 -1,2.6l0,8.6l-2.3,0l0,-9.1c0,-0.4 0,-0.9 -0.1,-1.2c-0.1,-0.4 -0.2,-0.7 -0.4,-1c-0.2,-0.3 -0.5,-0.5 -0.8,-0.6c-0.3,-0.2 -0.8,-0.2 -1.3,-0.2c-0.7,0 -1.2,0.1 -1.7,0.4c-0.5,0.3 -0.9,0.6 -1.2,1c-0.3,0.4 -0.5,0.8 -0.6,1.2c-0.1,0.4 -0.2,0.7 -0.2,1l0,8.6l-2.3,0l0,-13.8l2.3,0Z" style="fill:#676d70;fill-rule:nonzero;"/><path d="M278.3,46.6c-0.4,0.2 -0.9,0.3 -1.6,0.3c-0.6,0 -1.1,-0.2 -1.4,-0.5c-0.3,-0.3 -0.5,-0.9 -0.5,-1.6c-0.6,0.8 -1.4,1.3 -2.2,1.6c-0.8,0.3 -1.7,0.5 -2.7,0.5c-0.6,0 -1.2,-0.1 -1.8,-0.2c-0.6,-0.1 -1.1,-0.4 -1.5,-0.7c-0.4,-0.3 -0.7,-0.7 -1,-1.2c-0.2,-0.5 -0.4,-1.1 -0.4,-1.8c0,-0.8 0.1,-1.4 0.4,-1.9c0.3,-0.5 0.6,-0.9 1.1,-1.2c0.4,-0.3 0.9,-0.6 1.5,-0.7c0.6,-0.2 1.1,-0.3 1.7,-0.4c0.6,-0.1 1.2,-0.2 1.8,-0.3c0.6,-0.1 1.1,-0.2 1.5,-0.3c0.4,-0.1 0.8,-0.3 1,-0.5c0.3,-0.2 0.4,-0.6 0.4,-1c0,-0.5 -0.1,-0.9 -0.3,-1.2c-0.2,-0.3 -0.4,-0.5 -0.7,-0.7c-0.3,-0.2 -0.6,-0.3 -1,-0.3c-0.4,-0.1 -0.7,-0.1 -1.1,-0.1c-1,0 -1.8,0.2 -2.4,0.6c-0.6,0.4 -1,1.1 -1,2.1l-2.3,0c0,-0.9 0.2,-1.6 0.5,-2.2c0.3,-0.6 0.8,-1.1 1.3,-1.4c0.5,-0.4 1.1,-0.6 1.8,-0.8c0.7,-0.2 1.4,-0.2 2.2,-0.2c0.6,0 1.2,0 1.9,0.1c0.6,0.1 1.2,0.3 1.7,0.5c0.5,0.3 0.9,0.7 1.2,1.2c0.3,0.5 0.5,1.2 0.5,2l0,7.1c0,0.5 0,0.9 0.1,1.2c0.1,0.3 0.3,0.4 0.6,0.4c0.2,0 0.4,0 0.7,-0.1l0,1.7ZM274.6,39.5c-0.3,0.2 -0.7,0.4 -1.1,0.5c-0.5,0.1 -1,0.2 -1.5,0.2c-0.5,0 -1,0.1 -1.5,0.2c-0.5,0.1 -1,0.2 -1.4,0.4c-0.4,0.2 -0.7,0.4 -1,0.8c-0.3,0.3 -0.4,0.8 -0.4,1.3c0,0.4 0.1,0.7 0.2,0.9c0.2,0.3 0.3,0.5 0.6,0.6c0.2,0.2 0.5,0.3 0.8,0.3c0.3,0.1 0.7,0.1 1,0.1c0.8,0 1.4,-0.1 1.9,-0.3c0.5,-0.2 1,-0.5 1.3,-0.8c0.3,-0.3 0.6,-0.7 0.8,-1c0.2,-0.4 0.2,-0.7 0.2,-1l0,-2.2l0.1,0Z" style="fill:#676d70;fill-rule:nonzero;"/><path d="M282.4,32.7l0,2.9l0.1,0c0.6,-1.1 1.2,-2 2,-2.5c0.8,-0.5 1.8,-0.8 3.1,-0.8l0,2.4c-0.9,0 -1.7,0.1 -2.3,0.4c-0.6,0.3 -1.2,0.6 -1.6,1.1c-0.4,0.5 -0.7,1.1 -0.9,1.8c-0.2,0.7 -0.3,1.5 -0.3,2.4l0,6.2l-2.3,0l0,-13.9l2.2,0Z" style="fill:#676d70;fill-rule:nonzero;"/><path d="M291.7,27.5l0,11.4l6.3,-6.1l3.1,0l-5.5,5l5.9,8.8l-2.9,0l-4.8,-7.2l-2.1,2l0,5.3l-2.3,0l0,-19.2l2.3,0Z" style="fill:#676d70;fill-rule:nonzero;"/><path d="M315.6,46.6c-0.4,0.2 -0.9,0.3 -1.6,0.3c-0.6,0 -1.1,-0.2 -1.4,-0.5c-0.3,-0.3 -0.5,-0.9 -0.5,-1.6c-0.6,0.8 -1.4,1.3 -2.2,1.6c-0.8,0.3 -1.7,0.5 -2.7,0.5c-0.6,0 -1.2,-0.1 -1.8,-0.2c-0.6,-0.1 -1.1,-0.4 -1.5,-0.7c-0.4,-0.3 -0.7,-0.7 -1,-1.2c-0.2,-0.5 -0.4,-1.1 -0.4,-1.8c0,-0.8 0.1,-1.4 0.4,-1.9c0.3,-0.5 0.6,-0.9 1.1,-1.2c0.4,-0.3 0.9,-0.6 1.5,-0.7c0.6,-0.2 1.1,-0.3 1.7,-0.4c0.6,-0.1 1.2,-0.2 1.8,-0.3c0.6,-0.1 1.1,-0.2 1.5,-0.3c0.4,-0.1 0.8,-0.3 1,-0.5c0.3,-0.2 0.4,-0.6 0.4,-1c0,-0.5 -0.1,-0.9 -0.3,-1.2c-0.2,-0.3 -0.4,-0.5 -0.7,-0.7c-0.3,-0.2 -0.6,-0.3 -1,-0.3c-0.4,-0.1 -0.7,-0.1 -1.1,-0.1c-1,0 -1.8,0.2 -2.4,0.6c-0.6,0.4 -1,1.1 -1,2.1l-2.4,0c0,-0.9 0.2,-1.6 0.5,-2.2c0.3,-0.6 0.8,-1.1 1.3,-1.4c0.5,-0.4 1.1,-0.6 1.8,-0.8c0.7,-0.2 1.4,-0.2 2.2,-0.2c0.6,0 1.2,0 1.9,0.1c0.6,0.1 1.2,0.3 1.7,0.5c0.5,0.3 0.9,0.7 1.2,1.2c0.3,0.5 0.5,1.2 0.5,2l0,7.1c0,0.5 0,0.9 0.1,1.2c0.1,0.3 0.3,0.4 0.6,0.4c0.2,0 0.4,0 0.7,-0.1l0,1.7l0.1,0ZM311.8,39.5c-0.3,0.2 -0.7,0.4 -1.1,0.5c-0.5,0.1 -1,0.2 -1.5,0.2c-0.5,0 -1,0.1 -1.5,0.2c-0.5,0.1 -1,0.2 -1.4,0.4c-0.4,0.2 -0.7,0.4 -1,0.8c-0.3,0.3 -0.4,0.8 -0.4,1.3c0,0.4 0.1,0.7 0.2,0.9c0.2,0.3 0.3,0.5 0.6,0.6c0.2,0.2 0.5,0.3 0.8,0.3c0.3,0.1 0.7,0.1 1,0.1c0.8,0 1.4,-0.1 1.9,-0.3c0.5,-0.2 1,-0.5 1.3,-0.8c0.3,-0.3 0.6,-0.7 0.8,-1c0.2,-0.4 0.2,-0.7 0.2,-1l0,-2.2l0.1,0Z" style="fill:#676d70;fill-rule:nonzero;"/><path d="M320,27.5l0,7.2l0.1,0c0.4,-0.8 1,-1.3 1.8,-1.7c0.8,-0.3 1.7,-0.5 2.7,-0.5c1.1,0 2,0.2 2.8,0.6c0.8,0.4 1.5,0.9 2,1.6c0.5,0.7 0.9,1.4 1.2,2.3c0.3,0.9 0.4,1.8 0.4,2.8c0,1 -0.1,1.9 -0.4,2.8c-0.3,0.9 -0.7,1.6 -1.2,2.3c-0.5,0.7 -1.2,1.2 -2,1.5c-0.8,0.4 -1.7,0.6 -2.8,0.6c-0.3,0 -0.7,0 -1.1,-0.1c-0.4,-0.1 -0.8,-0.2 -1.2,-0.3c-0.4,-0.2 -0.8,-0.4 -1.2,-0.7c-0.4,-0.3 -0.7,-0.6 -0.9,-1l-0.2,0l0,1.9l-2.3,0l0,-19.3l2.3,0ZM328.2,37.7c-0.2,-0.6 -0.4,-1.2 -0.8,-1.7c-0.3,-0.5 -0.8,-0.9 -1.3,-1.2c-0.5,-0.3 -1.2,-0.4 -1.9,-0.4c-0.8,0 -1.4,0.2 -2,0.5c-0.5,0.3 -1,0.7 -1.3,1.2c-0.3,0.5 -0.6,1.1 -0.7,1.7c-0.2,0.6 -0.2,1.3 -0.2,1.9c0,0.7 0.1,1.3 0.2,2c0.2,0.6 0.4,1.2 0.8,1.7c0.3,0.5 0.8,0.9 1.4,1.2c0.6,0.3 1.2,0.4 2,0.4c0.8,0 1.4,-0.2 2,-0.5c0.5,-0.3 1,-0.7 1.3,-1.2c0.3,-0.5 0.6,-1.1 0.7,-1.7c0.1,-0.6 0.2,-1.3 0.2,-2c-0.1,-0.7 -0.2,-1.3 -0.4,-1.9Z" style="fill:#676d70;fill-rule:nonzero;"/><rect x="333.7" y="27.5" width="2.3" height="19.2" style="fill:#676d70;fill-rule:nonzero;"/><path d="M349.4,45.7c-1,0.8 -2.3,1.2 -3.9,1.2c-1.1,0 -2.1,-0.2 -2.9,-0.5c-0.8,-0.4 -1.5,-0.9 -2.1,-1.5c-0.6,-0.6 -1,-1.4 -1.2,-2.3c-0.3,-0.9 -0.4,-1.9 -0.5,-2.9c0,-1.1 0.2,-2 0.5,-2.9c0.3,-0.9 0.8,-1.6 1.4,-2.3c0.6,-0.6 1.3,-1.1 2.1,-1.5c0.8,-0.4 1.7,-0.5 2.6,-0.5c1.2,0 2.3,0.3 3.1,0.8c0.8,0.5 1.5,1.2 2,1.9c0.5,0.8 0.8,1.6 1,2.6c0.2,0.9 0.3,1.8 0.2,2.7l-10.4,0c0,0.6 0.1,1.2 0.2,1.7c0.2,0.5 0.4,1 0.8,1.5c0.4,0.4 0.8,0.8 1.4,1c0.6,0.3 1.2,0.4 2,0.4c1,0 1.8,-0.2 2.4,-0.7c0.6,-0.4 1,-1.1 1.2,-2l2.3,0c-0.5,1.4 -1.2,2.6 -2.2,3.3ZM348.8,36.8c-0.2,-0.5 -0.5,-0.9 -0.8,-1.2c-0.3,-0.3 -0.8,-0.6 -1.2,-0.8c-0.5,-0.2 -1,-0.3 -1.6,-0.3c-0.6,0 -1.1,0.1 -1.6,0.3c-0.5,0.2 -0.9,0.5 -1.2,0.8c-0.3,0.4 -0.6,0.8 -0.8,1.2c-0.2,0.5 -0.3,1 -0.3,1.5l8,0c-0.1,-0.5 -0.3,-1 -0.5,-1.5Z" style="fill:#676d70;fill-rule:nonzero;"/><path d="M361.6,30.2l0,-2.8l2.3,0l0,2.8l-2.3,0ZM363.9,32.7l0,13.9l-2.3,0l0,-13.9l2.3,0Z" style="fill:#676d70;fill-rule:nonzero;"/><path d="M377.5,46.6l0,-1.9l-0.1,0c-0.4,0.8 -1,1.3 -1.8,1.7c-0.8,0.3 -1.7,0.5 -2.7,0.5c-1.1,0 -2,-0.2 -2.8,-0.6c-0.8,-0.4 -1.5,-0.9 -2,-1.6c-0.5,-0.7 -0.9,-1.4 -1.2,-2.3c-0.3,-0.9 -0.4,-1.8 -0.4,-2.8c0,-1 0.1,-1.9 0.4,-2.8c0.3,-0.9 0.7,-1.6 1.2,-2.3c0.5,-0.7 1.2,-1.2 2,-1.6c0.8,-0.4 1.7,-0.6 2.8,-0.6c0.4,0 0.7,0 1.2,0.1c0.4,0.1 0.8,0.2 1.2,0.4c0.4,0.2 0.8,0.4 1.2,0.7c0.4,0.3 0.7,0.6 0.9,1l0.1,0l0,-7.1l2.3,0l0,19.2l-2.3,0l0,0ZM369.3,41.7c0.2,0.6 0.4,1.2 0.8,1.7c0.3,0.5 0.8,0.9 1.3,1.2c0.5,0.3 1.2,0.4 1.9,0.4c0.8,0 1.4,-0.2 2,-0.5c0.5,-0.3 1,-0.7 1.3,-1.2c0.3,-0.5 0.6,-1.1 0.7,-1.7c0.2,-0.6 0.2,-1.3 0.2,-1.9c0,-0.7 -0.1,-1.3 -0.2,-2c-0.2,-0.6 -0.4,-1.2 -0.8,-1.7c-0.3,-0.5 -0.8,-0.9 -1.4,-1.2c-0.6,-0.3 -1.2,-0.4 -2,-0.4c-0.8,0 -1.4,0.2 -2,0.5c-0.5,0.3 -1,0.7 -1.3,1.2c-0.3,0.5 -0.6,1.1 -0.7,1.7c-0.1,0.6 -0.2,1.3 -0.2,2c0.2,0.7 0.3,1.3 0.4,1.9Z" style="fill:#676d70;fill-rule:nonzero;"/><path d="M393.2,45.7c-1,0.8 -2.3,1.2 -3.9,1.2c-1.1,0 -2.1,-0.2 -2.9,-0.5c-0.8,-0.4 -1.5,-0.9 -2.1,-1.5c-0.6,-0.6 -1,-1.4 -1.2,-2.3c-0.3,-0.9 -0.4,-1.9 -0.5,-2.9c0,-1.1 0.2,-2 0.5,-2.9c0.3,-0.9 0.8,-1.6 1.4,-2.3c0.6,-0.6 1.3,-1.1 2.1,-1.5c0.8,-0.4 1.7,-0.5 2.6,-0.5c1.2,0 2.3,0.3 3.1,0.8c0.8,0.5 1.5,1.2 2,1.9c0.5,0.8 0.8,1.6 1,2.6c0.2,0.9 0.3,1.8 0.2,2.7l-10.5,0c0,0.6 0.1,1.2 0.2,1.7c0.2,0.5 0.4,1 0.8,1.5c0.4,0.4 0.8,0.8 1.4,1c0.6,0.3 1.2,0.4 2,0.4c1,0 1.8,-0.2 2.4,-0.7c0.6,-0.4 1,-1.1 1.2,-2l2.3,0c-0.4,1.4 -1.1,2.6 -2.1,3.3ZM392.6,36.8c-0.2,-0.5 -0.5,-0.9 -0.8,-1.2c-0.3,-0.3 -0.8,-0.6 -1.2,-0.8c-0.5,-0.2 -1,-0.3 -1.6,-0.3c-0.6,0 -1.1,0.1 -1.6,0.3c-0.5,0.2 -0.9,0.5 -1.2,0.8c-0.3,0.4 -0.6,0.8 -0.8,1.2c-0.2,0.5 -0.3,1 -0.3,1.5l8,0c-0.2,-0.5 -0.3,-1 -0.5,-1.5Z" style="fill:#676d70;fill-rule:nonzero;"/><path d="M399.9,32.7l0,2.2l0.1,0c0.9,-1.7 2.5,-2.5 4.5,-2.5c0.9,0 1.7,0.1 2.3,0.4c0.6,0.3 1.1,0.6 1.5,1c0.4,0.4 0.6,1 0.8,1.6c0.2,0.6 0.2,1.3 0.2,2.1l0,9.1l-2.3,0l0,-9.4c0,-0.9 -0.3,-1.5 -0.8,-2c-0.5,-0.5 -1.2,-0.8 -2.1,-0.8c-0.7,0 -1.3,0.1 -1.8,0.3c-0.5,0.2 -0.9,0.5 -1.3,0.9c-0.3,0.4 -0.6,0.9 -0.8,1.4c-0.2,0.5 -0.3,1.1 -0.3,1.7l0,7.8l-2.3,0l0,-13.8l2.3,0Z" style="fill:#676d70;fill-rule:nonzero;"/><path d="M418.6,32.7l0,2l-2.8,0l0,8.6c0,0.3 0,0.5 0.1,0.6c0,0.2 0.1,0.3 0.3,0.4c0.1,0.1 0.3,0.1 0.5,0.2l1.9,0l0,2l-1.7,0c-0.6,0 -1.1,0 -1.5,-0.1c-0.4,-0.1 -0.8,-0.2 -1,-0.4c-0.3,-0.2 -0.5,-0.5 -0.6,-0.9c-0.1,-0.4 -0.2,-0.9 -0.2,-1.6l0,-8.8l-2.4,0l0,-2l2.4,0l0,-4.2l2.3,0l0,4.2l2.7,0Z" style="fill:#676d70;fill-rule:nonzero;"/><path d="M421.3,30.2l0,-2.8l2.3,0l0,2.8l-2.3,0ZM423.5,32.7l0,13.9l-2.3,0l0,-13.9l2.3,0Z" style="fill:#676d70;fill-rule:nonzero;"/><path d="M433,32.7l0,2l-2.8,0l0,8.6c0,0.3 0,0.5 0.1,0.6c0,0.2 0.1,0.3 0.3,0.4c0.1,0.1 0.3,0.1 0.5,0.2l1.9,0l0,2l-1.7,0c-0.6,0 -1.1,0 -1.5,-0.1c-0.4,-0.1 -0.8,-0.2 -1,-0.4c-0.3,-0.2 -0.5,-0.5 -0.6,-0.9c-0.1,-0.4 -0.2,-0.9 -0.2,-1.6l0,-8.8l-2.4,0l0,-2l2.4,0l0,-4.2l2.3,0l0,4.2l2.7,0Z" style="fill:#676d70;fill-rule:nonzero;"/><path d="M435.7,30.2l0,-2.8l2.3,0l0,2.8l-2.3,0ZM438,32.7l0,13.9l-2.3,0l0,-13.9l2.3,0Z" style="fill:#676d70;fill-rule:nonzero;"/><path d="M451.3,45.7c-1,0.8 -2.3,1.2 -3.9,1.2c-1.1,0 -2.1,-0.2 -2.9,-0.5c-0.8,-0.4 -1.5,-0.9 -2.1,-1.5c-0.6,-0.6 -1,-1.4 -1.2,-2.3c-0.3,-0.9 -0.4,-1.9 -0.5,-2.9c0,-1.1 0.2,-2 0.5,-2.9c0.3,-0.9 0.8,-1.6 1.4,-2.3c0.6,-0.6 1.3,-1.1 2.1,-1.5c0.8,-0.4 1.7,-0.5 2.6,-0.5c1.2,0 2.3,0.3 3.1,0.8c0.8,0.5 1.5,1.2 2,1.9c0.5,0.8 0.8,1.6 1,2.6c0.2,0.9 0.3,1.8 0.2,2.7l-10.4,0c0,0.6 0.1,1.2 0.2,1.7c0.2,0.5 0.4,1 0.8,1.5c0.4,0.4 0.8,0.8 1.4,1c0.6,0.3 1.2,0.4 2,0.4c1,0 1.8,-0.2 2.4,-0.7c0.6,-0.4 1,-1.1 1.2,-2l2.3,0c-0.5,1.4 -1.1,2.6 -2.2,3.3ZM450.8,36.8c-0.2,-0.5 -0.5,-0.9 -0.8,-1.2c-0.3,-0.3 -0.8,-0.6 -1.2,-0.8c-0.5,-0.2 -1,-0.3 -1.6,-0.3c-0.6,0 -1.1,0.1 -1.6,0.3c-0.5,0.2 -0.9,0.5 -1.2,0.8c-0.3,0.4 -0.6,0.8 -0.8,1.2c-0.2,0.5 -0.3,1 -0.3,1.5l8,0c-0.2,-0.5 -0.3,-1 -0.5,-1.5Z" style="fill:#676d70;fill-rule:nonzero;"/><path d="M457.7,43.5c0.2,0.3 0.5,0.6 0.8,0.8c0.3,0.2 0.7,0.4 1.2,0.4c0.4,0.1 0.9,0.1 1.4,0.1c0.4,0 0.7,0 1.1,-0.1c0.4,-0.1 0.8,-0.2 1.1,-0.3c0.3,-0.1 0.6,-0.4 0.8,-0.6c0.2,-0.3 0.3,-0.6 0.3,-1.1c0,-0.6 -0.2,-1 -0.7,-1.3c-0.4,-0.3 -1,-0.6 -1.7,-0.7c-0.7,-0.2 -1.4,-0.4 -2.2,-0.5c-0.8,-0.2 -1.5,-0.4 -2.2,-0.6c-0.7,-0.3 -1.2,-0.7 -1.7,-1.2c-0.4,-0.5 -0.7,-1.2 -0.7,-2.1c0,-0.7 0.2,-1.3 0.5,-1.8c0.3,-0.5 0.7,-0.9 1.2,-1.2c0.5,-0.3 1,-0.5 1.7,-0.7c0.6,-0.2 1.2,-0.2 1.8,-0.2c0.8,0 1.5,0.1 2.2,0.2c0.7,0.1 1.2,0.4 1.8,0.7c0.5,0.3 0.9,0.8 1.2,1.3c0.3,0.6 0.5,1.3 0.5,2.1l-2.3,0c0,-0.4 -0.2,-0.8 -0.3,-1.1c-0.2,-0.3 -0.4,-0.5 -0.8,-0.7c-0.3,-0.2 -0.6,-0.3 -1,-0.4c-0.4,-0.1 -0.7,-0.1 -1.1,-0.1c-0.3,0 -0.7,0 -1,0.1c-0.3,0.1 -0.7,0.1 -1,0.3c-0.3,0.1 -0.5,0.3 -0.7,0.5c-0.2,0.2 -0.3,0.5 -0.3,0.9c0,0.4 0.1,0.7 0.4,1c0.3,0.3 0.6,0.5 1.1,0.6c0.4,0.2 0.9,0.3 1.5,0.4c0.5,0.1 1.1,0.2 1.6,0.4c0.6,0.1 1.1,0.3 1.7,0.5c0.5,0.2 1,0.4 1.5,0.7c0.4,0.3 0.8,0.7 1,1.1c0.3,0.4 0.4,1 0.4,1.7c0,0.8 -0.2,1.5 -0.5,2.1c-0.3,0.6 -0.8,1 -1.4,1.3c-0.6,0.3 -1.2,0.6 -1.9,0.7c-0.7,0.1 -1.4,0.2 -2.1,0.2c-0.8,0 -1.5,-0.1 -2.2,-0.2c-0.7,-0.2 -1.3,-0.4 -1.9,-0.8c-0.6,-0.4 -1,-0.8 -1.3,-1.5c-0.3,-0.6 -0.5,-1.3 -0.5,-2.2l2.3,0c0,0.6 0.2,1 0.4,1.3Z" style="fill:#676d70;fill-rule:nonzero;"/></g></g></svg>